# Blender v2.79 (sub 0) OBJ File: ''
# www.blender.org
mtllib quirk.mtl
o Cube.002
v 0.957550 0.968804 0.442644
v -1.042447 0.965231 0.442644
v -0.885557 1.101106 0.954675
v 1.093425 0.811914 0.954675
v -1.184747 0.798326 -0.045115
v 0.790644 1.111103 -0.045115
v 1.103422 -0.864289 -0.045115
v -0.871970 -1.177066 -0.045115
v 0.961122 -1.031194 0.442644
v -1.038875 -1.034766 0.442644
v 0.957550 0.968804 0.442644
v -1.042447 0.965231 0.442644
v 0.961122 -1.031194 0.442644
v -1.038875 -1.034766 0.442644
v 0.804232 -1.167068 0.954675
v -1.174750 -0.877876 0.954675
v -1.280080 -0.714043 1.410194
v -0.721724 1.206436 1.410193
v -1.351254 -0.564346 1.830109
v -0.572028 1.277611 1.830108
v 1.198755 0.648081 1.410193
v 0.640399 -1.272398 1.410194
v 1.269929 0.498384 1.830108
v -0.480887 1.310969 2.200214
v 1.303288 0.407244 2.200214
v 0.490703 -1.343573 1.830108
v -1.384613 -0.473206 2.200214
v -1.391502 -0.451590 2.457354
v -0.459272 1.317858 2.457354
v 0.399562 -1.376931 2.200214
v 1.310177 0.385629 2.457354
v 0.377947 -1.383820 2.457354
vt 0.268105 0.793774
vt 0.454195 0.698573
vt 0.462395 0.787627
vt 0.250495 0.822554
vt 0.336034 0.710899
vt 0.274121 0.765273
vt 0.227907 0.735471
vt 0.243748 0.687799
vt 0.226592 0.735835
vt 0.203940 0.734757
vt 0.239487 0.660062
vt 0.274598 0.767287
vt 0.267935 0.791251
vt 0.336832 0.712703
vt 0.442978 0.700341
vt 0.202131 0.735151
vt 0.238788 0.657459
vt 0.171706 0.731745
vt 0.229612 0.617333
vt 0.481123 0.602659
vt 0.215339 0.570455
vt 0.491118 0.514995
vt 0.195492 0.518555
vt 0.491118 0.435193
vt 0.225110 0.851740
vt 0.134142 0.724416
vt 0.447849 0.859658
vt 0.193460 0.882282
vt 0.426256 0.918908
vt 0.408273 0.967075
vt 0.161205 0.914703
vt 0.089139 0.714288
vt 0.482632 0.368985
vt 0.169785 0.468772
vt 0.145384 0.433539
vt 0.471430 0.326117
vt 0.040100 0.705843
vt 0.364008 0.000070
vt 0.037961 0.107493
vt 0.000070 0.702926
vt 0.399058 0.999930
vt 0.138079 0.942412
vn 0.0716 0.9974 -0.0000
vn -0.0000 0.0000 -1.0000
vn 0.0793 -0.9968 0.0000
vn 0.9968 0.0793 -0.0000
vn -0.0793 0.9968 0.0000
vn -0.9968 -0.0793 0.0000
vn -0.3538 0.1458 -0.9239
vn -0.1458 -0.3538 -0.9239
vn -0.1471 0.3533 -0.9239
vn 0.3533 0.1471 -0.9239
vn -0.0716 -0.9974 0.0000
vn 0.3538 -0.1458 -0.9239
vn 0.1458 0.3538 -0.9239
vn 0.1471 -0.3533 -0.9239
vn -0.3533 -0.1471 -0.9239
vn -0.9772 0.2124 0.0000
vn 0.9974 -0.0716 -0.0000
vn -0.9974 0.0716 -0.0000
vn -0.9422 0.3350 -0.0000
vn 0.9772 -0.2124 0.0000
vn -0.2124 -0.9772 0.0000
vn 0.2124 0.9772 0.0000
vn 0.4210 0.9071 -0.0000
vn -0.3350 -0.9422 0.0000
vn 0.3350 0.9422 0.0000
vn 0.9422 -0.3350 -0.0000
vn -0.8884 0.4590 -0.0000
vn 0.9071 -0.4210 0.0000
vn -0.9071 0.4210 0.0000
vn -0.4210 -0.9071 -0.0000
vn 0.0000 -0.0000 1.0000
vn -0.4590 -0.8884 0.0000
vn 0.4590 0.8884 -0.0000
vn 0.8884 -0.4590 -0.0000
usemtl Material.001
s 1
f 1/1/1 2/2/1 3/3/1 4/4/1
f 5/5/2 6/6/2 7/7/2 8/8/2
f 7/9/3 9/10/3 10/11/3 8/8/3
f 6/12/4 11/13/4 9/10/4 7/9/4
f 5/14/5 12/15/5 11/13/5 6/12/5
f 8/8/6 10/11/6 12/15/6 5/5/6
f 10/11/7 9/10/8 13/16/9 14/17/10
f 14/17/11 13/16/11 15/18/11 16/19/11
f 11/13/12 12/15/13 2/2/14 1/1/15
f 3/20/16 16/19/16 17/21/16 18/22/16
f 13/16/17 1/1/17 4/4/17 15/18/17
f 2/2/18 14/17/18 16/19/18 3/20/18
f 12/15/13 10/11/7 14/17/10 2/2/14
f 9/10/8 11/13/12 1/1/15 13/16/9
f 18/22/19 17/21/19 19/23/19 20/24/19
f 15/18/20 4/4/20 21/25/20 22/26/20
f 16/19/21 15/18/21 22/26/21 17/21/21
f 4/4/22 3/3/22 18/27/22 21/25/22
f 23/28/23 20/29/23 24/30/23 25/31/23
f 17/21/24 22/26/24 26/32/24 19/23/24
f 21/25/25 18/27/25 20/29/25 23/28/25
f 22/26/26 21/25/26 23/28/26 26/32/26
f 24/33/27 27/34/27 28/35/27 29/36/27
f 26/32/28 23/28/28 25/31/28 30/37/28
f 20/24/29 19/23/29 27/34/29 24/33/29
f 19/23/30 26/32/30 30/37/30 27/34/30
f 31/38/31 29/36/31 28/35/31 32/39/31
f 27/34/32 30/37/32 32/40/32 28/35/32
f 25/31/33 24/30/33 29/41/33 31/42/33
f 30/37/34 25/31/34 31/42/34 32/40/34
