# Blender v2.79 (sub 0) OBJ File: ''
# www.blender.org
mtllib spawner.mtl
o Cylinder
v 0.000000 2.309027 -1.841086
v 0.000000 2.309027 0.220828
v 0.450469 2.264660 -1.841086
v 0.450469 2.264660 0.220828
v 0.883627 2.133263 -1.841086
v 0.883627 2.133263 0.220828
v 1.282827 1.919886 -1.841086
v 1.282827 1.919886 0.220828
v 1.632729 1.632729 -1.841086
v 1.632729 1.632729 0.220828
v 1.919886 1.282827 -1.841086
v 1.919886 1.282827 0.220828
v 2.133263 0.883627 -1.841086
v 2.133263 0.883627 0.220828
v 2.264660 0.450469 -1.841086
v 2.264660 0.450469 0.220828
v 2.309027 0.000000 -1.841086
v 2.309027 0.000000 0.220828
v 2.264660 -0.450469 -1.841086
v 2.264660 -0.450469 0.220828
v 2.133263 -0.883626 -1.841086
v 2.133263 -0.883626 0.220828
v 1.919886 -1.282827 -1.841086
v 1.919886 -1.282827 0.220828
v 1.632729 -1.632729 -1.841086
v 1.632729 -1.632729 0.220828
v 1.282827 -1.919886 -1.841086
v 1.282827 -1.919886 0.220828
v 0.883626 -2.133263 -1.841086
v 0.883626 -2.133263 0.220828
v 0.450468 -2.264660 -1.841086
v 0.450468 -2.264660 0.220828
v -0.000001 -2.309027 -1.841086
v -0.000001 -2.309027 0.220828
v -0.450470 -2.264660 -1.841086
v -0.450470 -2.264660 0.220828
v -0.883628 -2.133263 -1.841086
v -0.883628 -2.133263 0.220828
v -1.282828 -1.919885 -1.841086
v -1.282828 -1.919885 0.220828
v -1.632730 -1.632728 -1.841086
v -1.632730 -1.632728 0.220828
v -1.919887 -1.282826 -1.841086
v -1.919887 -1.282826 0.220828
v -2.133264 -0.883625 -1.841086
v -2.133264 -0.883625 0.220828
v -2.264660 -0.450467 -1.841086
v -2.264660 -0.450467 0.220828
v -2.309027 0.000002 -1.841086
v -2.309027 0.000002 0.220828
v -2.264660 0.450471 -1.841086
v -2.264660 0.450471 0.220828
v -2.133262 0.883629 -1.841086
v -2.133262 0.883629 0.220828
v -1.919885 1.282829 -1.841086
v -1.919885 1.282829 0.220828
v -1.632727 1.632731 -1.841086
v -1.632727 1.632731 0.220828
v -1.282824 1.919888 -1.841086
v -1.282824 1.919888 0.220828
v -0.883623 2.133265 -1.841086
v -0.883623 2.133265 0.220828
v -0.450465 2.264661 -1.841086
v -0.450465 2.264661 0.220828
v 0.374406 1.882266 0.449720
v 0.000000 1.919142 0.449720
v 0.734424 1.773055 0.449720
v 1.066218 1.595708 0.449720
v 1.357038 1.357038 0.449720
v 1.595708 1.066218 0.449720
v 1.773055 0.734424 0.449720
v 1.882266 0.374406 0.449720
v 1.919141 0.000000 0.449720
v 1.882266 -0.374406 0.449720
v 1.773056 -0.734423 0.449720
v 1.595708 -1.066218 0.449720
v 1.357038 -1.357038 0.449720
v 1.066218 -1.595708 0.449720
v 0.734423 -1.773055 0.449720
v 0.374406 -1.882266 0.449720
v -0.000001 -1.919141 0.449720
v -0.374407 -1.882265 0.449720
v -0.734424 -1.773055 0.449720
v -1.066219 -1.595707 0.449720
v -1.357039 -1.357037 0.449720
v -1.595708 -1.066217 0.449720
v -1.773056 -0.734422 0.449720
v -1.882266 -0.374404 0.449720
v -1.919141 0.000002 0.449720
v -1.882265 0.374408 0.449720
v -1.773054 0.734426 0.449720
v -1.595706 1.066220 0.449720
v -1.357036 1.357040 0.449720
v -1.066216 1.595709 0.449720
v -0.734421 1.773057 0.449720
v -0.374403 1.882266 0.449720
vn 0.0980 0.9952 0.0000
vn 0.2903 0.9569 0.0000
vn 0.4714 0.8819 0.0000
vn 0.6344 0.7730 0.0000
vn 0.7730 0.6344 0.0000
vn 0.8819 0.4714 0.0000
vn 0.9569 0.2903 0.0000
vn 0.9952 0.0980 0.0000
vn 0.9952 -0.0980 0.0000
vn 0.9569 -0.2903 0.0000
vn 0.8819 -0.4714 0.0000
vn 0.7730 -0.6344 0.0000
vn 0.6344 -0.7730 0.0000
vn 0.4714 -0.8819 0.0000
vn 0.2903 -0.9569 0.0000
vn 0.0980 -0.9952 0.0000
vn -0.0980 -0.9952 0.0000
vn -0.2903 -0.9569 0.0000
vn -0.4714 -0.8819 0.0000
vn -0.6344 -0.7730 0.0000
vn -0.7730 -0.6344 0.0000
vn -0.8819 -0.4714 0.0000
vn -0.9569 -0.2903 0.0000
vn -0.9952 -0.0980 0.0000
vn -0.9952 0.0980 0.0000
vn -0.9569 0.2903 0.0000
vn -0.8819 0.4714 0.0000
vn -0.7730 0.6344 0.0000
vn -0.6344 0.7730 0.0000
vn -0.4714 0.8819 0.0000
vn 0.4862 0.1475 0.8613
vn -0.2903 0.9569 0.0000
vn -0.0980 0.9952 0.0000
vn -0.0000 0.0000 -1.0000
vn -0.0000 0.0000 1.0000
vn 0.0498 -0.5056 0.8613
vn -0.5056 0.0498 0.8613
vn 0.2395 0.4481 0.8613
vn 0.3928 -0.3223 0.8613
vn -0.3928 -0.3223 0.8613
vn -0.2395 0.4481 0.8613
vn 0.5056 0.0498 0.8613
vn -0.0498 -0.5056 0.8613
vn -0.4862 0.1475 0.8613
vn 0.3223 0.3928 0.8613
vn 0.3223 -0.3928 0.8613
vn -0.4481 -0.2395 0.8613
vn -0.1475 0.4862 0.8613
vn 0.5056 -0.0498 0.8613
vn -0.1475 -0.4862 0.8613
vn -0.4481 0.2395 0.8613
vn 0.3928 0.3223 0.8613
vn 0.2395 -0.4481 0.8613
vn -0.4862 -0.1475 0.8613
vn 0.0498 0.5056 0.8613
vn -0.0498 0.5056 0.8613
vn 0.4862 -0.1475 0.8613
vn -0.2395 -0.4481 0.8613
vn -0.3928 0.3223 0.8613
vn 0.4481 0.2395 0.8613
vn 0.1475 -0.4862 0.8613
vn -0.5056 -0.0498 0.8613
vn 0.1475 0.4862 0.8613
vn 0.4481 -0.2395 0.8613
vn -0.3223 -0.3928 0.8613
vn -0.3223 0.3928 0.8613
usemtl Material.001
s off
f 1//1 2//1 4//1 3//1
f 3//2 4//2 6//2 5//2
f 5//3 6//3 8//3 7//3
f 7//4 8//4 10//4 9//4
f 9//5 10//5 12//5 11//5
f 11//6 12//6 14//6 13//6
f 13//7 14//7 16//7 15//7
f 15//8 16//8 18//8 17//8
f 17//9 18//9 20//9 19//9
f 19//10 20//10 22//10 21//10
f 21//11 22//11 24//11 23//11
f 23//12 24//12 26//12 25//12
f 25//13 26//13 28//13 27//13
f 27//14 28//14 30//14 29//14
f 29//15 30//15 32//15 31//15
f 31//16 32//16 34//16 33//16
f 33//17 34//17 36//17 35//17
f 35//18 36//18 38//18 37//18
f 37//19 38//19 40//19 39//19
f 39//20 40//20 42//20 41//20
f 41//21 42//21 44//21 43//21
f 43//22 44//22 46//22 45//22
f 45//23 46//23 48//23 47//23
f 47//24 48//24 50//24 49//24
f 49//25 50//25 52//25 51//25
f 51//26 52//26 54//26 53//26
f 53//27 54//27 56//27 55//27
f 55//28 56//28 58//28 57//28
f 57//29 58//29 60//29 59//29
f 59//30 60//30 62//30 61//30
f 16//31 14//31 71//31 72//31
f 61//32 62//32 64//32 63//32
f 63//33 64//33 2//33 1//33
f 1//34 3//34 5//34 7//34 9//34 11//34 13//34 15//34 17//34 19//34 21//34 23//34 25//34 27//34 29//34 31//34 33//34 35//34 37//34 39//34 41//34 43//34 45//34 47//34 49//34 51//34 53//34 55//34 57//34 59//34 61//34 63//34
f 65//35 66//35 96//35 95//35 94//35 93//35 92//35 91//35 90//35 89//35 88//35 87//35 86//35 85//35 84//35 83//35 82//35 81//35 80//35 79//35 78//35 77//35 76//35 75//35 74//35 73//35 72//35 71//35 70//35 69//35 68//35 67//35
f 34//36 32//36 80//36 81//36
f 52//37 50//37 89//37 90//37
f 8//38 6//38 67//38 68//38
f 26//39 24//39 76//39 77//39
f 44//40 42//40 85//40 86//40
f 62//41 60//41 94//41 95//41
f 18//42 16//42 72//42 73//42
f 36//43 34//43 81//43 82//43
f 54//44 52//44 90//44 91//44
f 10//45 8//45 68//45 69//45
f 28//46 26//46 77//46 78//46
f 46//47 44//47 86//47 87//47
f 64//48 62//48 95//48 96//48
f 20//49 18//49 73//49 74//49
f 38//50 36//50 82//50 83//50
f 56//51 54//51 91//51 92//51
f 12//52 10//52 69//52 70//52
f 30//53 28//53 78//53 79//53
f 48//54 46//54 87//54 88//54
f 4//55 2//55 66//55 65//55
f 2//56 64//56 96//56 66//56
f 22//57 20//57 74//57 75//57
f 40//58 38//58 83//58 84//58
f 58//59 56//59 92//59 93//59
f 14//60 12//60 70//60 71//60
f 32//61 30//61 79//61 80//61
f 50//62 48//62 88//62 89//62
f 6//63 4//63 65//63 67//63
f 24//64 22//64 75//64 76//64
f 42//65 40//65 84//65 85//65
f 60//66 58//66 93//66 94//66
