# Blender v2.79 (sub 0) OBJ File: ''
# www.blender.org
mtllib tree.mtl
o Cube_Cube.003
v -0.189692 -0.189693 -0.033195
v -0.189692 -0.189693 1.966805
v -0.189692 0.189692 -0.033195
v -0.189692 0.189692 1.966805
v 0.189693 -0.189693 -0.033195
v 0.189693 -0.189693 1.966805
v 0.189693 0.189692 -0.033195
v 0.189693 0.189692 1.966805
v -0.189692 -0.189693 1.966805
v -0.189692 0.189692 1.966805
v 0.189693 0.189692 1.966805
v 0.189693 -0.189693 1.966805
v -0.189692 -0.189693 1.966805
v -0.189692 0.189692 1.966805
v 0.189693 0.189692 1.966805
v 0.189693 -0.189693 1.966805
v -0.189692 -0.189693 1.966805
v -0.189692 0.189692 1.966805
v 0.189693 0.189692 1.966805
v 0.189693 -0.189693 1.966805
v -0.189692 -0.189693 2.260491
v -0.189692 0.189692 2.260491
v 0.237881 0.189110 2.271086
v 0.237881 -0.189111 2.271086
v -0.188280 -0.189428 2.552676
v -0.188280 0.189427 2.552676
v 0.166572 0.183188 2.568236
v 0.166572 -0.183189 2.568236
v 0.637980 0.176823 2.502458
v 0.637980 -0.176823 2.502458
v 0.390101 0.176823 2.613111
v 0.390101 -0.176823 2.613111
v 0.919572 0.139260 3.203999
v 0.919572 -0.139261 3.203999
v 0.724350 0.139260 3.291146
v 0.724350 -0.139261 3.291146
v -0.790675 -0.268190 2.364523
v -0.790675 0.086227 2.364523
v -0.795351 -0.267038 2.609948
v -0.795351 0.055673 2.609948
v -0.790675 -0.268190 2.364523
v -0.790675 0.086227 2.364523
v -0.795351 -0.267038 2.609948
v -0.795351 0.055673 2.609948
v -1.128480 -0.367297 2.813656
v -1.130029 -0.143112 2.813900
v -1.032799 -0.364297 2.933304
v -1.035798 -0.142859 2.933806
v -1.178333 -0.182413 3.632335
v -1.178333 -0.022765 3.632335
v -1.042293 -0.200290 3.636611
v -1.042293 -0.048220 3.636611
v -0.197717 -0.078586 4.119884
v -0.194203 0.091185 4.108756
v 0.008533 0.092459 4.129611
v 0.007810 -0.093268 4.129235
v 1.050971 0.139260 3.498350
v 1.050971 -0.139261 3.498350
v 0.855749 0.139260 3.585497
v 0.855749 -0.139261 3.585497
v 0.601686 -0.934991 3.700165
v 0.731561 -0.905816 3.645077
v 0.689129 -0.949874 3.898440
v 0.819005 -0.920699 3.843353
v 0.423733 1.342622 3.682353
v 0.545088 1.342622 3.628180
v 0.505414 1.342622 3.865331
v 0.626769 1.342622 3.811158
v -1.204323 -0.182413 3.776430
v -1.204323 -0.022765 3.776430
v -1.067049 -0.200290 3.773868
v -1.067049 -0.048220 3.773868
v -1.042293 -0.200290 3.636611
v -1.042293 -0.048220 3.636611
v -1.067049 -0.200290 3.773868
v -1.067049 -0.048220 3.773868
v -0.664122 -0.191425 3.713083
v -0.664122 -0.057085 3.713083
v -0.685992 -0.191425 3.834336
v -0.685626 -0.056777 3.834584
v -1.178333 -0.022765 3.632335
v -1.042293 -0.048220 3.636611
v -1.204323 -0.022765 3.776430
v -1.067049 -0.048220 3.773868
v -1.019685 0.854856 3.864425
v -0.907285 0.854856 3.884698
v -1.043908 0.854856 3.998725
v -0.931508 0.854856 4.018998
v -0.244421 -0.099517 4.645942
v -0.242492 0.086200 4.647274
v -0.045827 0.090376 4.666776
v -0.046550 -0.095351 4.666399
v 0.593208 -1.126879 3.754104
v 0.722335 -1.092851 3.700050
v 0.680701 -1.144295 3.952151
v 0.809828 -1.110266 3.898098
v 0.173309 -1.055455 4.274757
v 0.016066 -1.059040 4.120615
v 0.156358 -1.250483 4.238756
v 0.019204 -1.242905 4.122270
v 0.593208 -1.126879 3.754104
v 0.722335 -1.092851 3.700050
v 0.680701 -1.144295 3.952151
v 0.809828 -1.110266 3.898098
v -1.606319 0.151761 3.922092
v -1.606319 0.311409 3.922092
v -1.632308 0.151761 4.066187
v -1.632308 0.311409 4.066187
v 0.973601 -1.588875 4.233267
v 1.102728 -1.554846 4.179214
v 1.061094 -1.606291 4.431315
v 1.190221 -1.572262 4.377262
v 1.582376 0.088917 4.783573
v 1.582376 -0.088918 4.783573
v 1.457727 0.088917 4.839216
v 1.457727 -0.088918 4.839216
v -0.272961 -0.100611 4.927971
v -0.271033 0.085106 4.929304
v -0.074368 0.089282 4.948805
v -0.075091 -0.096445 4.948429
v 0.396349 0.577089 5.251472
v 0.395953 0.475355 5.251266
v 0.380716 0.576490 5.405955
v 0.380320 0.474756 5.405749
v 0.206222 -0.841025 5.716393
v 0.162624 -0.939321 5.735187
v 0.153609 -0.791031 5.853940
v 0.110011 -0.889326 5.872734
v 0.206222 -0.841025 5.716393
v 0.162624 -0.939321 5.735187
v 0.153609 -0.791031 5.853940
v 0.110011 -0.889326 5.872734
v -0.592270 0.279756 6.738308
v -0.591347 0.368661 6.738946
v -0.497202 0.370660 6.748281
v -0.497548 0.281750 6.748101
v -0.436234 0.103079 3.959369
v -0.436234 0.190854 3.959369
v -0.450523 0.103079 4.038592
v -0.450523 0.190854 4.038592
v -1.839384 0.573543 4.254623
v -1.839384 0.656051 4.254623
v -1.852816 0.573543 4.329093
v -1.852816 0.656051 4.329093
vn -0.5773 -0.5773 -0.5773
vn -0.4082 -0.4082 0.8165
vn -0.4082 0.4082 0.8165
vn -0.5773 0.5773 -0.5773
vn 0.4082 0.4082 0.8165
vn 0.5773 0.5773 -0.5773
vn 0.4082 -0.4082 0.8165
vn 0.5773 -0.5773 -0.5773
vn 0.0000 0.0000 1.0000
vn 0.4176 0.4653 0.7804
vn 0.4176 -0.4653 0.7804
vn -0.4079 -0.4082 0.8167
vn 0.4804 -0.8199 -0.3113
vn -0.3265 -0.8881 -0.3234
vn -0.4079 0.4082 0.8167
vn 0.4804 0.8199 -0.3113
vn -0.4012 0.8810 -0.2507
vn -0.3148 0.9032 0.2917
vn 0.2365 0.9086 0.3443
vn 0.2302 -0.9098 0.3452
vn 0.7077 0.7000 0.0952
vn 0.7010 -0.7078 0.0875
vn -0.3230 -0.8160 0.4794
vn -0.3230 0.8160 0.4794
vn -0.2608 0.7266 0.6356
vn -0.0189 0.2709 0.9624
vn -0.2178 -0.9132 0.3442
vn 0.5899 -0.6463 -0.4840
vn 0.6963 -0.5022 -0.5127
vn -0.9162 -0.3962 0.0593
vn 0.5899 0.6463 -0.4840
vn -0.9535 0.2974 0.0495
vn -0.6696 0.1557 0.7262
vn -0.3724 0.4574 0.8076
vn -0.8408 0.5101 -0.1814
vn 0.7108 0.4607 -0.5314
vn -0.4240 0.2027 0.8827
vn -0.0297 0.4599 0.8875
vn 0.0671 -0.3003 0.9514
vn -0.0081 -0.7108 0.7033
vn -0.4955 -0.2539 0.8307
vn 0.4046 -0.4620 0.7892
vn 0.5223 -0.8047 0.2824
vn -0.6292 -0.7345 -0.2539
vn 0.6470 0.7275 0.2284
vn -0.8376 0.4972 -0.2262
vn -0.5726 0.7186 0.3947
vn 0.2635 0.2374 0.9350
vn -0.6600 -0.7371 -0.1451
vn -0.7805 -0.3746 -0.5005
vn -0.0978 0.7486 -0.6557
vn 0.2830 -0.6181 0.7334
vn -0.7214 -0.6922 -0.0204
vn 0.7616 -0.5924 -0.2627
vn -0.7431 -0.6181 -0.2562
vn -0.7014 0.7127 -0.0068
vn 0.9063 0.3986 -0.1404
vn -0.2786 0.5672 0.7750
vn 0.7630 0.5672 0.3100
vn 0.9128 -0.3764 -0.1586
vn 0.9080 0.0157 0.4186
vn 0.3305 -0.4353 -0.8374
vn -0.6970 -0.0793 0.7127
vn 0.0688 0.5535 0.8300
vn -0.7728 0.2098 -0.5989
vn -0.8888 0.4554 -0.0518
vn -0.0723 0.5317 0.8438
vn 0.1868 0.7237 -0.6644
vn 0.6605 0.6358 0.3993
vn 0.3681 0.2241 0.9024
vn -0.2678 -0.7725 0.5758
vn -0.0414 -0.3594 0.9322
vn 0.0041 0.0000 1.0000
vn -0.0422 0.3142 0.9484
vn 0.1502 0.6814 0.7163
vn 0.3051 -0.1359 0.9425
vn -0.3916 0.0030 0.9201
vn -0.5742 0.5801 0.5777
vn 0.3028 0.5696 -0.7641
vn 0.1502 -0.6809 0.7167
vn -0.0421 -0.3144 0.9483
vn 0.1746 -0.7525 0.6350
vn 0.5017 -0.6583 -0.5612
vn 0.9404 -0.2740 -0.2014
vn 0.3550 -0.3206 0.8782
vn -0.5822 0.3531 0.7323
vn -0.5789 0.5670 0.5859
vn -0.4323 0.6874 -0.5836
vn 0.6151 0.0474 0.7870
vn 0.7165 0.5837 -0.3818
vn 0.5322 0.4496 0.7173
vn 0.8032 -0.0828 0.5898
vn 0.9422 -0.2730 -0.1941
vn 0.3482 -0.3356 0.8753
vn -0.7055 0.7058 -0.0634
vn 0.5473 0.7982 -0.2518
vn -0.5555 -0.8251 0.1029
vn 0.7342 -0.5468 0.4024
vn 0.1881 -0.4723 0.8611
vn -0.2325 -0.4785 0.8467
vn 0.2670 -0.2248 0.9371
vn 0.3703 0.0567 0.9272
vn -0.7548 -0.6515 -0.0757
vn -0.0670 -0.6711 0.7383
vn 0.5081 0.4608 0.7277
vn 0.8660 -0.1684 0.4707
vn 0.6489 -0.4831 -0.5877
vn -0.3817 0.0445 0.9232
vn 0.8342 0.2842 0.4726
vn -0.1734 0.9171 -0.3589
vn -0.2503 0.7143 0.6535
vn -0.3490 -0.6114 0.7101
vn -0.4859 -0.8673 -0.1075
vn -0.0968 -0.4396 0.8929
vn 0.7630 -0.5672 0.3100
vn -0.2786 -0.5672 0.7750
vn -0.9316 -0.3528 0.0874
vn 0.4779 -0.5098 0.7154
vn -0.6705 -0.5124 0.5365
vn -0.7069 0.6905 -0.1530
vn 0.1288 0.7849 0.6061
vn 0.8874 -0.2253 -0.4020
vn -0.2822 0.9039 0.3213
vn 0.4261 0.8487 -0.3132
vn 0.1755 0.6979 0.6943
vn 0.4660 0.6383 0.6127
vn -0.6426 0.6139 0.4584
vn -0.9295 0.0232 0.3681
vn -0.5697 -0.7450 -0.3469
vn 0.8517 -0.2950 0.4330
vn 0.4576 0.8262 -0.3284
vn 0.1520 0.7126 0.6849
vn -0.9305 -0.1415 -0.3377
vn -0.4277 -0.2802 0.8594
usemtl None
s 1
f 1//1 2//2 4//3 3//4
f 3//4 4//3 8//5 7//6
f 7//6 8//5 6//7 5//8
f 5//8 6//7 2//2 1//1
f 3//4 7//6 5//8 1//1
f 4//3 2//2 9//9 10//9
f 9//9 12//9 16//9 13//9
f 2//2 6//7 12//9 9//9
f 8//5 4//3 10//9 11//9
f 6//7 8//5 11//9 12//9
f 16//9 15//9 19//10 20//11
f 11//9 10//9 14//9 15//9
f 12//9 11//9 15//9 16//9
f 10//9 9//9 13//9 14//9
f 17//12 20//11 24//13 21//14
f 14//9 13//9 17//12 18//15
f 13//9 16//9 20//11 17//12
f 15//9 14//9 18//15 19//10
f 23//16 22//17 26//18 27//19
f 19//10 18//15 22//17 23//16
f 20//11 19//10 23//16 24//13
f 18//15 17//12 21//14 22//17
f 28//20 27//19 55//21 56//22
f 27//19 28//20 32//23 31//24
f 26//18 22//17 38//25 40//26
f 21//14 24//13 28//20 25//27
f 32//23 30//28 34//29 36//30
f 24//13 23//16 29//31 30//28
f 23//16 27//19 31//24 29//31
f 28//20 24//13 30//28 32//23
f 35//32 59//33 67//34 65//35
f 31//24 32//23 36//30 35//32
f 29//31 31//24 35//32 33//36
f 30//28 29//31 33//36 34//29
f 40//26 38//25 42//37 44//38
f 25//27 26//18 40//26 39//39
f 21//14 25//27 39//39 37//40
f 22//17 21//14 37//40 38//25
f 41//41 43//42 47//43 45//44
f 38//25 37//40 41//41 42//37
f 37//40 39//39 43//42 41//41
f 39//39 40//26 44//38 43//42
f 48//45 46//46 50//47 52//48
f 43//42 44//38 48//45 47//43
f 44//38 42//37 46//46 48//45
f 42//37 41//41 45//44 46//46
f 50//47 49//49 105//50 106//51
f 46//46 45//44 49//49 50//47
f 45//44 47//43 51//52 49//49
f 47//43 48//45 52//48 51//52
f 53//53 56//22 92//54 89//55
f 26//18 25//27 53//53 54//56
f 25//27 28//20 56//22 53//53
f 27//19 26//18 54//56 55//21
f 57//57 59//33 115//58 113//59
f 34//29 33//36 57//57 58//60
f 34//29 58//60 64//61 62//62
f 35//32 36//30 60//63 59//33
f 63//64 61//65 98//66 97//67
f 60//63 36//30 61//65 63//64
f 58//60 60//63 63//64 64//61
f 36//30 34//29 62//62 61//65
f 66//68 65//35 67//34 68//69
f 59//33 57//57 68//69 67//34
f 33//36 35//32 65//35 66//68
f 57//57 33//36 66//68 68//69
f 70//70 69//71 71//72 72//73
f 49//49 51//52 71//72 69//71
f 52//48 72//73 76//74 74//75
f 70//70 72//73 84//76 83//77
f 74//75 76//74 80//78 78//79
f 51//52 52//48 74//75 73//80
f 72//73 71//72 75//81 76//74
f 71//72 51//52 73//80 75//81
f 79//82 77//83 137//84 139//85
f 76//74 75//81 79//82 80//78
f 75//81 73//80 77//83 79//82
f 73//80 74//75 78//79 77//83
f 81//86 83//77 87//87 85//88
f 72//73 52//48 82//89 84//76
f 50//47 70//70 83//77 81//86
f 52//48 50//47 81//86 82//89
f 86//90 85//88 87//87 88//91
f 82//89 81//86 85//88 86//90
f 84//76 82//89 86//90 88//91
f 83//77 84//76 88//91 87//87
f 120//92 92//54 122//93 124//94
f 55//21 54//56 90//95 91//96
f 56//22 55//21 91//96 92//54
f 54//56 53//53 89//55 90//95
f 93//97 94//98 102//99 101//100
f 64//61 63//64 95//101 96//102
f 62//62 64//61 96//102 94//98
f 61//65 62//62 94//98 93//97
f 97//67 98//66 100//103 99//104
f 95//101 63//64 97//67 99//104
f 93//97 95//101 99//104 100//103
f 61//65 93//97 100//103 98//66
f 102//99 104//105 112//106 110//107
f 95//101 93//97 101//100 103//108
f 96//102 95//101 103//108 104//105
f 94//98 96//102 104//105 102//99
f 108//109 106//51 142//110 144//111
f 49//49 69//71 107//112 105//50
f 69//71 70//70 108//109 107//112
f 70//70 50//47 106//51 108//109
f 109//113 110//107 112//106 111//114
f 101//100 102//99 110//107 109//113
f 103//108 101//100 109//113 111//114
f 104//105 103//108 111//114 112//106
f 114//115 113//59 115//58 116//116
f 58//60 57//57 113//59 114//115
f 60//63 58//60 114//115 116//116
f 59//33 60//63 116//116 115//58
f 117//117 120//92 136//118 133//119
f 90//95 89//55 117//117 118//120
f 92//54 120//92 127//121 125//122
f 91//96 90//95 118//120 119//123
f 122//93 121//124 123//125 124//94
f 92//54 91//96 121//124 122//93
f 91//96 119//123 123//125 121//124
f 119//123 120//92 124//94 123//125
f 135//126 134//127 133//119 136//118
f 120//92 117//117 128//128 127//121
f 117//117 89//55 126//129 128//128
f 89//55 92//54 125//122 126//129
f 130//130 129//130 131//130 132//130
f 119//123 118//120 134//127 135//126
f 120//92 119//123 135//126 136//118
f 118//120 117//117 133//119 134//127
f 137//84 138//131 140//132 139//85
f 77//83 78//79 138//131 137//84
f 78//79 80//78 140//132 138//131
f 80//78 79//82 139//85 140//132
f 142//110 141//133 143//134 144//111
f 107//112 108//109 144//111 143//134
f 105//50 107//112 143//134 141//133
f 106//51 105//50 141//133 142//110
